<svg xmlns="http://www.w3.org/2000/svg" width="114" height="20" viewBox="0 0 114 20">
    <path fill="#CDBB66" fill-rule="evenodd" d="M18.4 10.168h2.012c.778 0 1.533-.069 2.22-.435.617-.32 1.12-1.075 1.12-2.15 0-1.076-.503-1.785-1.167-2.105-.686-.366-1.464-.435-2.31-.435H18.4v5.125zm1.715-8.121c2.86 0 4.003.411 4.987 1.166 1.235 1.007 1.922 2.654 1.922 4.324s-.71 3.409-1.785 4.278c-1.143.938-2.288 1.35-4.758 1.35h-2.082v5.81h-3.408V2.047h5.124zm89.638 4.423c2.031 0 3.665 1.666 3.665 3.738s-1.634 3.738-3.665 3.738c-2.032 0-3.666-1.666-3.666-3.738s1.634-3.738 3.666-3.738zm-106.088 0c2.032 0 3.687 1.666 3.687 3.738s-1.655 3.738-3.687 3.738C1.655 13.946 0 12.28 0 10.208S1.655 6.47 3.665 6.47zm25.233 12.505V2.047h3.408V8.84h6.52V2.047h3.408v16.928h-3.408v-7.138h-6.52v7.138h-3.408zm58.854-2.997h2.401c3.66 0 5.079-2.402 5.079-5.445 0-1.326-.344-2.744-1.144-3.797-.71-.914-1.853-1.693-3.912-1.693h-2.424v10.935zm-3.41-13.931h5.377c2.104 0 5.17.206 7.182 2.928 1.236 1.556 1.739 3.431 1.739 5.513 0 4.78-2.516 8.487-8.67 8.487h-5.627V2.047zm-9.585.124c4.04.664 7.125 4.14 7.125 8.34 0 4.674-3.817 8.464-8.525 8.464h-.6a4.009 4.009 0 0 0-.807-2.02l-.75-.976h2.157c3.049 0 5.53-2.453 5.53-5.468 0-2.618-1.872-4.81-4.36-5.343a9.514 9.514 0 0 0 .28-1.524l.002-.03.002-.032c.033-.489.012-.96-.054-1.411zM55.331 16.136a4.074 4.074 0 0 0-.815 2.84h-1.428c-4.708 0-8.525-3.79-8.525-8.465 0-3.838 2.575-7.075 6.101-8.112.135.302.501.846.501.846l1.201 1.85c-2.708.35-4.807 2.643-4.807 5.416 0 3.015 2.48 5.468 5.529 5.468h2.362l-.119.157zm7.334.292l-2.027 2.673a1.999 1.999 0 0 1-1.65.894c-.372 0-.736-.111-1.044-.32a1.905 1.905 0 0 1-.443-2.736l2.627-3.353a.631.631 0 1 1 .998.776L58.5 17.715a.653.653 0 0 0 .155.935c.137.09.306.123.469.09a.737.737 0 0 0 .469-.316l2.026-2.684a.628.628 0 0 1 1.163.202.624.624 0 0 1-.12.484l.003.002zM71.583.488C70.75-.11 69.613-.16 68.405.35a7.327 7.327 0 0 0-2.99 2.513c-1.087 1.525-1.31 2.72-1.073 4.135.045.28.02.567-.073.835a.627.627 0 0 0 1.185.403c.16-.465.202-.962.124-1.447-.181-1.08-.027-1.958.858-3.196A6.052 6.052 0 0 1 68.9 1.506c.46-.194 1.326-.45 1.964 0 .638.45.678 1.36.645 1.856a6.05 6.05 0 0 1-1.175 3.011c-.884 1.252-1.822 1.566-2.901 1.746a2.994 2.994 0 0 0-1.613.822.626.626 0 0 0 .874.895c.057-.055.118-.108.182-.156.22-.17.48-.284.753-.332 1.409-.236 2.63-.727 3.717-2.254a7.32 7.32 0 0 0 1.404-3.657c.088-1.309-.327-2.357-1.166-2.957v.008zM62.77 8.027c.378-.895.06-1.783-.505-2.574L58.54.257a.626.626 0 0 0-1.019.727l3.72 5.201c.315.441.58.878.363 1.375-.175.386-.124.835.132 1.173l6.681 9.045a.596.596 0 0 1-.578.947.593.593 0 0 1-.388-.254l-6.595-9.228a1.151 1.151 0 0 0-1.071-.5c-.542.052-.715-.327-1.037-.767l-3.935-5.532a.626.626 0 0 0-1.018.728l3.94 5.533c.568.788 1.149 1.366 2.119 1.295l6.556 9.176a1.863 1.863 0 0 0 1.544.824 1.846 1.846 0 0 0 1.461-2.975L62.77 8.027zm-3.078-.696a.625.625 0 0 0 .507-.991l-3.395-4.858a.627.627 0 0 0-1.027.717l3.401 4.859a.627.627 0 0 0 .514.267v.006z"/>
</svg>
